<svg width="16" height="16" viewBox="0 0 16 16" fill="none" xmlns="http://www.w3.org/2000/svg">
  <!-- Paleta de cores com pincel -->
  <path d="M8 1C4.134 1 1 4.134 1 8C1 9.657 1.821 11 3 11C3.552 11 4 10.552 4 10C4 9.724 3.888 9.474 3.707 9.293C3.526 9.112 3.276 9 3 9C2.448 9 2 8.552 2 8C2 4.686 4.686 2 8 2C11.314 2 14 4.686 14 8C14 10.209 12.209 12 10 12H7.5C7.224 12 7 12.224 7 12.5C7 12.776 7.224 13 7.5 13H10C12.761 13 15 10.761 15 8C15 4.134 11.866 1 8 1Z" fill="white"/>
  <circle cx="5" cy="8" r="1" fill="white"/>
  <circle cx="8" cy="5" r="1" fill="white"/>
  <circle cx="11" cy="8" r="1" fill="white"/>
  <!-- Gota de tinta -->
  <path d="M7.5 14C7.5 14.828 8.172 15.5 9 15.5C9.828 15.5 10.5 14.828 10.5 14C10.5 13.5 9 11.5 9 11.5C9 11.5 7.5 13.5 7.5 14Z" fill="white"/>
</svg>