<svg width="16" height="16" viewBox="0 0 16 16" fill="none" xmlns="http://www.w3.org/2000/svg">
  <!-- Balão/Pirulito -->
  <circle cx="13" cy="3" r="2" fill="white"/>
  <rect x="12.5" y="5" width="1" height="4" rx="0.5" fill="white"/>
  <!-- Rosto de criança -->
  <path d="M7 5C4.791 5 3 6.791 3 9C3 11.209 4.791 13 7 13C9.209 13 11 11.209 11 9C11 6.791 9.209 5 7 5ZM5.5 8.5C5.776 8.5 6 8.724 6 9C6 9.276 5.776 9.5 5.5 9.5C5.224 9.5 5 9.276 5 9C5 8.724 5.224 8.5 5.5 8.5ZM8.5 8.5C8.776 8.5 9 8.724 9 9C9 9.276 8.776 9.5 8.5 9.5C8.224 9.5 8 9.276 8 9C8 8.724 8.224 8.5 8.5 8.5ZM7 11.5C5.895 11.5 5 10.881 5 10.5C5 10.224 5.224 10 5.5 10H8.5C8.776 10 9 10.224 9 10.5C9 10.881 8.105 11.5 7 11.5Z" fill="white"/>
  <!-- Cabelo encaracolado -->
  <path d="M4.5 5.5C4.5 5.5 4 5 4 4.5C4 4 4.5 3.5 5 3.5C5.5 3.5 6 4 6 4.5M7 5C7 5 6.5 4.5 6.5 4C6.5 3.5 7 3 7.5 3C8 3 8.5 3.5 8.5 4M9 5.5C9 5.5 9.5 5 9.5 4.5C9.5 4 9 3.5 8.5 3.5" stroke="white" stroke-width="0.5" fill="none"/>
</svg>