<svg width="16" height="16" viewBox="0 0 16 16" fill="none" xmlns="http://www.w3.org/2000/svg">
  <!-- Rosto com proporções áureas -->
  <path d="M8 1C5.239 1 3 3.462 3 6.5V9.5C3 12.538 5.239 15 8 15C10.761 15 13 12.538 13 9.5V6.5C13 3.462 10.761 1 8 1ZM8 2.5C9.933 2.5 11.5 4.29 11.5 6.5V9.5C11.5 11.71 9.933 13.5 8 13.5C6.067 13.5 4.5 11.71 4.5 9.5V6.5C4.5 4.29 6.067 2.5 8 2.5Z" fill="white"/>
  <!-- Linhas de proporção -->
  <rect x="5" y="5.5" width="6" height="0.5" fill="white" opacity="0.5"/>
  <rect x="5" y="8" width="6" height="0.5" fill="white" opacity="0.5"/>
  <rect x="5" y="10.5" width="6" height="0.5" fill="white" opacity="0.5"/>
  <rect x="7.75" y="3" width="0.5" height="10" fill="white" opacity="0.5"/>
  <!-- Pontos de referência facial -->
  <circle cx="6" cy="6" r="0.5" fill="white"/>
  <circle cx="10" cy="6" r="0.5" fill="white"/>
  <circle cx="8" cy="8.5" r="0.5" fill="white"/>
  <path d="M6.5 11C6.5 11 7 11.5 8 11.5C9 11.5 9.5 11 9.5 11" stroke="white" stroke-width="0.5" fill="none"/>
</svg>